<svg xmlns="http://www.w3.org/2000/svg" width="24" height="24" viewBox="0 0 24 24" fill="none">
  <path d="M10.5999 12.71C10.5061 12.617 10.4317 12.5064 10.381 12.3846C10.3302 12.2627 10.3041 12.132 10.3041 12C10.3041 11.868 10.3302 11.7373 10.381 11.6154C10.4317 11.4936 10.5061 11.383 10.5999 11.29L15.1899 6.71C15.2836 6.61704 15.358 6.50644 15.4088 6.38458C15.4595 6.26272 15.4857 6.13201 15.4857 6C15.4857 5.86799 15.4595 5.73728 15.4088 5.61542C15.358 5.49356 15.2836 5.38296 15.1899 5.29C15.0025 5.10375 14.749 4.99921 14.4849 4.99921C14.2207 4.99921 13.9672 5.10375 13.7799 5.29L9.18986 9.88001C8.62806 10.4425 8.3125 11.205 8.3125 12C8.3125 12.795 8.62806 13.5575 9.18986 14.12L13.7799 18.71C13.9661 18.8948 14.2175 18.9989 14.4799 19C14.6115 19.0008 14.7419 18.9756 14.8638 18.9258C14.9856 18.876 15.0964 18.8027 15.1899 18.71C15.2836 18.6171 15.358 18.5065 15.4088 18.3846C15.4595 18.2627 15.4857 18.132 15.4857 18C15.4857 17.868 15.4595 17.7373 15.4088 17.6154C15.358 17.4936 15.2836 17.383 15.1899 17.29L10.5999 12.71Z" fill="#F8F8F8" fill-opacity="0.5"/>
</svg>