<svg xmlns="http://www.w3.org/2000/svg" width="24" height="24" viewBox="0 0 24 24" fill="none">
  <path d="M13.4001 12.7101C13.4939 12.6171 13.5683 12.5065 13.619 12.3846C13.6698 12.2628 13.6959 12.1321 13.6959 12.0001C13.6959 11.8681 13.6698 11.7374 13.619 11.6155C13.5683 11.4936 13.4939 11.383 13.4001 11.2901L8.81014 6.71006C8.71641 6.6171 8.64202 6.5065 8.59125 6.38464C8.54048 6.26278 8.51434 6.13207 8.51434 6.00006C8.51434 5.86805 8.54048 5.73734 8.59125 5.61548C8.64202 5.49362 8.71641 5.38302 8.81014 5.29006C8.9975 5.10381 9.25095 4.99927 9.51514 4.99927C9.77933 4.99927 10.0328 5.10381 10.2201 5.29006L14.8101 9.88007C15.3719 10.4426 15.6875 11.2051 15.6875 12.0001C15.6875 12.7951 15.3719 13.5576 14.8101 14.1201L10.2201 18.7101C10.0339 18.8948 9.78248 18.999 9.52014 19.0001C9.38853 19.0008 9.25807 18.9756 9.13623 18.9258C9.0144 18.8761 8.90358 18.8028 8.81014 18.7101C8.71641 18.6171 8.64202 18.5065 8.59125 18.3847C8.54048 18.2628 8.51434 18.1321 8.51434 18.0001C8.51434 17.8681 8.54048 17.7374 8.59125 17.6155C8.64202 17.4936 8.71641 17.383 8.81014 17.2901L13.4001 12.7101Z" fill="#050505"/>
</svg>