<?xml version="1.0" encoding="iso-8859-1"?>
<!-- Generator: Adobe Illustrator 16.0.0, SVG Export Plug-In . SVG Version: 6.00 Build 0)  -->
<!DOCTYPE svg PUBLIC "-//W3C//DTD SVG 1.1//EN" "http://www.w3.org/Graphics/SVG/1.1/DTD/svg11.dtd">
<svg version="1.1" id="Capa_1" xmlns="http://www.w3.org/2000/svg" xmlns:xlink="http://www.w3.org/1999/xlink" x="0px" y="0px"
	 width="30.725px" height="30.726px" viewBox="0 0 30.725 30.726" style="enable-background:new 0 0 30.725 30.726;"
	 xml:space="preserve">
<g>
	<path d="M18.662,26.458c0.978,0.978,0.978,2.561,0,3.535c-0.487,0.488-1.128,0.732-1.769,0.732c-0.64,0-1.278-0.244-1.768-0.732
		L0.495,15.364l14.63-14.631c0.978-0.978,2.559-0.978,3.535,0c0.978,0.977,0.978,2.56,0,3.535L7.566,15.364L18.662,26.458z
		 M18.402,15.364L29.497,4.269c0.979-0.979,0.979-2.562,0-3.535c-0.979-0.978-2.56-0.978-3.533,0L11.332,15.364l14.631,14.629
		c0.486,0.488,1.127,0.732,1.768,0.732c0.64,0,1.279-0.244,1.768-0.732c0.977-0.977,0.977-2.56,0-3.535L18.402,15.364z"/>
</g>
<g>
</g>
<g>
</g>
<g>
</g>
<g>
</g>
<g>
</g>
<g>
</g>
<g>
</g>
<g>
</g>
<g>
</g>
<g>
</g>
<g>
</g>
<g>
</g>
<g>
</g>
<g>
</g>
<g>
</g>
</svg>
