<svg aria-hidden="true" style="position: absolute; width: 0; height: 0; overflow: hidden;" version="1.1" xmlns="http://www.w3.org/2000/svg" xmlns:xlink="http://www.w3.org/1999/xlink">
<defs>
<!-- HEART ICON -->
<symbol id="icon-heart" viewBox="0 0 32 32">
<path  d="M15.991 6.848c-2.666-3.117-7.113-3.956-10.452-1.101-3.34 2.854-3.811 7.625-1.187 11.001 2.182 2.806 8.781 8.724 10.944 10.64 0.241 0.214 0.364 0.321 0.505 0.364 0.057 0.017 0.123 0.028 0.191 0.028s0.134-0.010 0.195-0.029l-0.005 0.001c0.141-0.042 0.262-0.15 0.503-0.364 2.164-1.916 8.764-7.834 10.944-10.64 2.623-3.375 2.211-8.177-1.187-11.001-3.398-2.825-7.786-2.016-10.451 1.101z"></path>
</symbol>

<symbol id="heart" viewBox="0 0 32 32">
<path fill="none" opacity="0.5" stroke="#f8f8f8" style="stroke: var(--color1, #f8f8f8)" stroke-linejoin="round" stroke-linecap="round" stroke-miterlimit="4" stroke-width="2.9091" d="M15.992 6.848c-2.666-3.117-7.111-3.955-10.451-1.101s-3.81 7.625-1.187 11c2.181 2.806 8.781 8.725 10.944 10.641 0.242 0.214 0.363 0.321 0.504 0.364 0.123 0.037 0.258 0.037 0.381 0 0.141-0.042 0.262-0.149 0.504-0.364 2.163-1.916 8.763-7.834 10.944-10.641 2.623-3.375 2.21-8.177-1.187-11.001s-7.785-2.015-10.451 1.101z"></path>
</symbol>
<!-- CLOSE ICON -->
<symbol id="icon-close-x" viewBox="0 0 32 32">
<path d="M7.383 6.293c-0.412 0.201-0.939 0.738-1.118 1.145-0.081 0.165-0.129 0.359-0.129 0.563 0 0.208 0.049 0.404 0.136 0.578l-0.003-0.008c0.121 0.276 0.508 0.681 3.692 3.868l3.557 3.559-3.557 3.561c-3.184 3.186-3.572 3.591-3.692 3.867-0.279 0.636-0.108 1.234 0.526 1.844 0.612 0.587 1.163 0.731 1.778 0.46 0.276-0.121 0.681-0.508 3.867-3.692l3.561-3.557 3.559 3.557c3.188 3.184 3.593 3.572 3.868 3.692 0.636 0.279 1.234 0.108 1.844-0.526 0.587-0.612 0.731-1.163 0.46-1.778-0.121-0.276-0.508-0.681-3.692-3.868l-3.557-3.559 3.557-3.559c3.184-3.188 3.572-3.593 3.692-3.868 0.27-0.615 0.126-1.166-0.46-1.778-0.61-0.635-1.207-0.805-1.844-0.526-0.276 0.121-0.681 0.508-3.868 3.692l-3.559 3.557-3.561-3.557c-3.186-3.184-3.591-3.572-3.867-3.692-0.166-0.085-0.363-0.134-0.571-0.134-0.227 0-0.44 0.059-0.625 0.163l0.006-0.003z"></path>
</symbol>
<!-- HAMBURGER ICON -->
<symbol id="icon-hamburger" viewBox="0 0 32 32">
<path d="M3.717 7.038c-0.456 0.089-0.693 0.417-0.693 0.962 0 0.616 0.277 0.924 0.885 0.985 0.182 0.019 5.755 0.027 12.384 0.018 11.943-0.016 12.055-0.017 12.235-0.123 0.364-0.214 0.528-0.637 0.436-1.126-0.040-0.274-0.203-0.503-0.432-0.632l-0.004-0.002c-0.18-0.106-0.284-0.107-12.395-0.114-6.717-0.004-12.305 0.010-12.416 0.032zM3.717 12.371c-0.456 0.089-0.693 0.418-0.693 0.962 0 0.616 0.277 0.924 0.885 0.986 0.182 0.018 5.755 0.026 12.384 0.017 11.943-0.016 12.055-0.017 12.235-0.123 0.233-0.13 0.396-0.359 0.435-0.628l0.001-0.005c0.092-0.49-0.072-0.912-0.436-1.127-0.18-0.105-0.284-0.106-12.395-0.114-6.717-0.004-12.305 0.010-12.416 0.032zM3.717 17.705c-0.456 0.089-0.693 0.417-0.693 0.962 0 0.616 0.277 0.924 0.885 0.985 0.182 0.018 5.755 0.026 12.384 0.017 11.943-0.016 12.055-0.017 12.235-0.122 0.364-0.215 0.528-0.637 0.436-1.127-0.040-0.274-0.203-0.503-0.432-0.631l-0.004-0.002c-0.18-0.106-0.284-0.107-12.395-0.115-6.717-0.004-12.305 0.011-12.416 0.033zM3.717 23.038c-0.456 0.089-0.693 0.417-0.693 0.962 0 0.616 0.277 0.924 0.885 0.985 0.182 0.019 5.755 0.027 12.384 0.018 11.943-0.016 12.055-0.017 12.235-0.123 0.364-0.214 0.528-0.637 0.436-1.126-0.040-0.274-0.203-0.503-0.432-0.632l-0.004-0.002c-0.18-0.106-0.284-0.107-12.395-0.114-6.717-0.004-12.305 0.010-12.416 0.032z"></path>
</symbol>
<!-- CART ICON -->
<symbol id="icon-cart" viewBox="0 0 32 32">
<path d="M0.72 0.26c-0.397 0.183-0.56 0.493-0.56 1.073 0 0.547 0.152 0.864 0.507 1.059 0.14 0.077 0.467 0.092 2.587 0.115l2.427 0.027 0.579 2.88 1.739 8.672c1.123 5.611 1.167 5.807 1.377 6.24 0.492 1.017 1.386 1.773 2.47 2.070l0.027 0.006c0.4 0.103 0.62 0.105 7.515 0.105s7.115-0.003 7.515-0.105c1.376-0.382 2.43-1.464 2.766-2.828l0.006-0.027c0.067-0.288 1.657-8.601 2.137-11.173 0.14-0.745 0.016-1.124-0.453-1.387l-0.237-0.133-22.133-0.053-0.593-2.945c-0.325-1.62-0.621-3.015-0.657-3.1-0.115-0.232-0.306-0.412-0.541-0.509l-0.007-0.003c-0.171-0.072-0.607-0.083-3.227-0.081-2.824 0.001-3.043 0.008-3.241 0.099zM29.189 9.213c0.036 0.063-1.819 9.719-1.917 9.984-0.12 0.323-0.444 0.659-0.78 0.809l-0.279 0.127h-13.653l-0.279-0.127c-0.351-0.169-0.624-0.451-0.776-0.799l-0.004-0.010c-0.085-0.227-2.008-9.735-2.008-9.929 0-0.091 0.471-0.095 9.837-0.095 5.409 0 9.847 0.019 9.859 0.040zM11.303 25.431c-1.145 0.299-1.979 1.404-1.967 2.607 0.013 1.276 0.984 2.391 2.251 2.585 0.871 0.133 1.659-0.125 2.284-0.752 0.432-0.432 0.664-0.88 0.752-1.457 0.021-0.124 0.032-0.267 0.032-0.413 0-1.467-1.188-2.657-2.655-2.66h-0c-0.191 0-0.504 0.041-0.697 0.091zM25.969 25.431c-1.145 0.299-1.979 1.404-1.967 2.607 0.013 1.276 0.984 2.391 2.251 2.585 0.871 0.133 1.659-0.125 2.284-0.752 0.432-0.432 0.664-0.88 0.752-1.457 0.021-0.124 0.032-0.267 0.032-0.413 0-1.467-1.188-2.657-2.655-2.66h-0c-0.191 0-0.504 0.041-0.697 0.091z"></path>
</symbol>
  <!-- SEARCH ICON-->
<symbol id="icon-search" viewBox="0 0 32 32">
<path d="M28.948 27.054l-4.948-4.907c1.644-2.036 2.639-4.656 2.639-7.508 0-6.627-5.373-12-12-12s-12 5.373-12 12c0 6.627 5.373 12 12 12 2.852 0 5.472-0.995 7.531-2.657l-0.023 0.018 4.907 4.907c0.242 0.244 0.577 0.394 0.947 0.394s0.705-0.151 0.947-0.394l0-0c0.232-0.24 0.374-0.566 0.374-0.926s-0.143-0.687-0.375-0.927l0 0zM14.667 24c-5.155 0-9.333-4.179-9.333-9.333s4.179-9.333 9.333-9.333v0c5.155 0 9.333 4.179 9.333 9.333s-4.179 9.333-9.333 9.333v0z"></path>
</symbol>
<!-- ARROW -->
<symbol id="icon-arrow" viewBox="0 0 32 32">
<path d="M17.867 16.947c0.244-0.241 0.396-0.576 0.396-0.947s-0.151-0.705-0.395-0.947l-0-0-6.12-6.107c-0.243-0.242-0.394-0.577-0.394-0.947 0-0.737 0.597-1.334 1.334-1.334 0.367 0 0.699 0.148 0.94 0.388l6.12 6.12c0.723 0.724 1.17 1.723 1.17 2.827s-0.447 2.103-1.17 2.827l-6.12 6.12c-0.241 0.239-0.573 0.387-0.94 0.387-0.737 0-1.334-0.597-1.334-1.334 0-0.37 0.151-0.705 0.394-0.947l0-0 6.12-6.107z"></path>
</symbol>
<!-- ARROW left and right -->
<symbol id="icon-left-one" viewBox="0 0 31 32">
<path d="M14.963 11.899c-4.237 4.372-4.237 4.732 0 9.104 1.758 1.848 3.47 3.335 3.741 3.335 0.316 0 0.811-0.316 1.127-0.676 0.451-0.541 0.045-1.172-2.434-3.741-1.623-1.713-2.975-3.38-2.975-3.741s1.217-1.848 2.704-3.335c1.487-1.487 2.704-3.020 2.704-3.47 0-1.623-1.713-0.766-4.868 2.524z"></path>
</symbol>
<symbol id="icon-left-two" viewBox="0 0 37 32">
<path d="M12.652 10.782c-2.462 2.511-3.791 4.283-3.791 4.972 0 0.738 1.378 2.511 3.938 5.12 3.742 3.791 3.938 3.938 4.775 3.102 0.837-0.788 0.689-0.985-2.462-4.185-1.822-1.822-3.298-3.643-3.298-4.037s1.477-2.215 3.298-4.037c2.806-2.806 3.2-3.397 2.609-4.037-0.345-0.443-0.788-0.788-0.935-0.788-0.197 0-2.068 1.723-4.135 3.889z"></path>
<path d="M21.268 10.535c-4.775 4.923-4.775 5.563 0.098 10.535 2.56 2.609 3.84 3.594 4.431 3.397 1.477-0.591 0.788-2.018-2.511-5.366l-3.298-3.348 3.348-3.397c2.215-2.265 3.298-3.692 3.151-4.283-0.345-1.822-1.723-1.182-5.218 2.462z"></path>
<symbol id="icon-right-one" viewBox="0 0 31 32">
<path d="M11.268 8.338c-0.451 0.541-0.045 1.172 2.434 3.741 1.623 1.713 2.975 3.38 2.975 3.741s-1.217 1.848-2.704 3.335c-1.487 1.487-2.704 3.020-2.704 3.47 0 1.623 1.713 0.766 4.868-2.524 4.237-4.372 4.237-4.732 0-9.104-1.758-1.848-3.47-3.335-3.741-3.335-0.316 0-0.811 0.316-1.127 0.676z"></path>
</symbol>
</symbol>
<symbol id="icon-right-two" viewBox="0 0 37 32">
<path d="M10.683 7.729c-0.837 0.788-0.098 2.068 2.954 5.169l3.298 3.348-3.298 3.348c-3.298 3.348-3.988 4.775-2.511 5.366 0.591 0.197 1.871-0.788 4.431-3.397 4.874-4.972 4.874-5.612 0.098-10.535-3.348-3.446-4.234-4.037-4.972-3.298z"></path>
<path d="M19.2 8.172c-0.591 0.64-0.197 1.231 2.609 4.037 1.822 1.822 3.298 3.643 3.298 4.037s-1.477 2.215-3.298 4.037c-3.151 3.2-3.298 3.397-2.462 4.185 0.837 0.837 1.034 0.689 4.775-3.102 2.56-2.609 3.938-4.382 3.938-5.12 0-0.689-1.329-2.462-3.791-4.972-2.068-2.166-3.938-3.889-4.135-3.889-0.148 0-0.591 0.345-0.935 0.788z"></path>
</symbol>

 <!-- STAR ICON YELLOW -->
<symbol id="icon-star" viewBox="0 0 32 32">
<path fill="#eea10c" style="fill: var(--color2, #eea10c)" d="M13.826 3.262c0.686-2.105 3.664-2.105 4.347 0l1.931 5.943c0.306 0.925 1.163 1.581 2.174 1.582h6.251c2.215 0 3.134 2.834 1.344 4.135l-5.058 3.673c-0.573 0.42-0.942 1.092-0.942 1.849 0 0.253 0.041 0.496 0.117 0.723l-0.005-0.016 1.931 5.945c0.686 2.105-1.726 3.858-3.518 2.555l-5.056-3.673c-0.372-0.273-0.839-0.437-1.344-0.437s-0.972 0.164-1.35 0.441l0.006-0.004-5.056 3.673c-1.792 1.303-4.201-0.45-3.518-2.555l1.931-5.943c0.071-0.212 0.113-0.455 0.113-0.708 0-0.757-0.368-1.429-0.936-1.845l-0.006-0.004-5.058-3.673c-1.79-1.303-0.869-4.137 1.344-4.137h6.251c1.008-0.001 1.864-0.654 2.167-1.561l0.005-0.016 1.934-5.943z"></path>
</symbol>
<!-- STAR ICON GRAY -->
<symbol id="icon-star-j" viewBox="0 0 24 24">
    <path d="M10.37 2.446c.513-1.579 2.748-1.579 3.261 0l1.449 4.459a1.715 1.715 0 0 0 1.63 1.185h4.688c1.661 0 2.351 2.125 1.008 3.101l-3.793 2.756a1.715 1.715 0 0 0-.623 1.917l1.449 4.459c.513 1.579-1.294 2.893-2.638 1.917l-3.793-2.756a1.716 1.716 0 0 0-2.015 0L7.2 22.24c-1.344.976-3.151-.337-2.638-1.917l1.449-4.459a1.716 1.716 0 0 0-.623-1.917l-3.793-2.755C.251 10.216.942 8.091 2.603 8.091h4.688c.743 0 1.401-.478 1.63-1.185l1.449-4.459z"  />
</symbol>
 <!-- COOK LOGO -->
<symbol id="icon-elements" viewBox="0 0 37 32">
<path fill="#9bb537" style="fill: var(--color1, #9bb537)" d="M7.325 12.723h23.133v17.735h-23.133v-17.735z"></path>
<path fill="#9bb537" style="fill: var(--color1, #9bb537)" d="M16.578 11.373c0 4.578-3.711 8.289-8.289 8.289s-8.289-3.711-8.289-8.289c0-4.578 3.711-8.289 8.289-8.289s8.289 3.711 8.289 8.289z"></path>
<path fill="#9bb537" style="fill: var(--color1, #9bb537)" d="M26.988 8.289c0 4.578-3.711 8.289-8.289 8.289s-8.289-3.711-8.289-8.289c0-4.578 3.711-8.289 8.289-8.289s8.289 3.711 8.289 8.289z"></path>
<path fill="#9bb537" style="fill: var(--color1, #9bb537)" d="M37.398 11.373c0 4.578-3.711 8.289-8.289 8.289s-8.289-3.711-8.289-8.289c0-4.578 3.711-8.289 8.289-8.289s8.289 3.711 8.289 8.289z"></path>
<path fill="#f8f8f8" style="fill: var(--color2, #f8f8f8)" d="M7.325 29.301h23.133v2.036c0 0.366-0.324 0.663-0.723 0.663h-21.687c-0.399 0-0.723-0.297-0.723-0.663v-2.036z"></path>
<path fill="#f8f8f8" style="fill: var(--color2, #f8f8f8)" d="M14.265 10.36c0-0.611 0.432-1.107 0.964-1.107s0.964 0.495 0.964 1.107v5.112c0 0.611-0.432 1.107-0.964 1.107s-0.964-0.495-0.964-1.107v-5.112z"></path>
<path fill="#f8f8f8" style="fill: var(--color2, #f8f8f8)" d="M17.349 10.36c0-0.611 0.604-1.107 1.349-1.107s1.349 0.495 1.349 1.107v5.112c0 0.611-0.604 1.107-1.349 1.107s-1.349-0.495-1.349-1.107v-5.112z"></path>
<path fill="#f8f8f8" style="fill: var(--color2, #f8f8f8)" d="M21.205 10.36c0-0.611 0.432-1.107 0.964-1.107s0.964 0.495 0.964 1.107v5.112c0 0.611-0.432 1.107-0.964 1.107s-0.964-0.495-0.964-1.107v-5.112z"></path>
<path fill="#050505" style="fill: var(--color3, #050505)" d="M28.184 3.131c0.289-0.030 0.581-0.045 0.878-0.045 3.714 0 6.861 2.413 7.938 5.746-0.289 0.030-0.581 0.045-0.878 0.045-3.714 0-6.861-2.413-7.938-5.746z"></path>
</symbol>
 <!-- TO UP BUTTON -->
<symbol id="scroll-to-top_icon" viewBox="0 0 33 32">
      <path d="M28.889 17.666c0.432 0.411 0.992 0.613 1.552 0.605s1.114-0.223 1.536-0.647l0.032-0.032c0.398-0.419 0.592-0.955 0.584-1.488s-0.218-1.064-0.629-1.472c-4.682-4.684-9.443-9.318-14.162-13.973-0.013-0.019-0.027-0.034-0.042-0.050-0.432-0.414-0.997-0.615-1.557-0.607s-1.117 0.225-1.538 0.65l-0.069 0.072c-4.655 4.639-9.324 9.265-13.968 13.912-0.408 0.409-0.618 0.936-0.626 1.47s0.186 1.069 0.586 1.488l0.040 0.040c0.419 0.416 0.971 0.631 1.528 0.639s1.119-0.194 1.552-0.605l12.538-12.525 12.645 12.525zM28.358 31.398c0.43 0.409 0.989 0.607 1.546 0.599 0.56-0.008 1.114-0.223 1.536-0.647l0.032-0.032c0.398-0.416 0.592-0.955 0.586-1.488-0.008-0.533-0.218-1.066-0.629-1.472-4.586-4.584-9.096-9.324-13.626-13.971-0.013-0.019-0.029-0.037-0.045-0.056-0.432-0.411-0.997-0.613-1.557-0.605s-1.117 0.225-1.538 0.65c-4.496 4.642-8.976 9.302-13.467 13.952l-0.034 0.032c-0.408 0.406-0.615 0.936-0.623 1.47s0.186 1.069 0.586 1.488l0.040 0.040c0.419 0.416 0.971 0.631 1.528 0.639s1.119-0.194 1.552-0.605l12-12.515 12.114 12.52z"></path>
</symbol>
 <!-- STAR ICON -->
    <symbol id="icon-Star-1" viewBox="0 0 24 24">
      <path d="M10.37 2.446c.513-1.579 2.748-1.579 3.261 0l1.449 4.459a1.715 1.715 0 0 0 1.63 1.185h4.688c1.661 0 2.351 2.125 1.008 3.101l-3.793 2.756a1.715 1.715 0 0 0-.623 1.917l1.449 4.459c.513 1.579-1.294 2.893-2.638 1.917l-3.793-2.756a1.716 1.716 0 0 0-2.015 0L7.2 22.24c-1.344.976-3.151-.337-2.638-1.917l1.449-4.459a1.716 1.716 0 0 0-.623-1.917l-3.793-2.755C.251 10.216.942 8.091 2.603 8.091h4.688c.743 0 1.401-.478 1.63-1.185l1.449-4.459z"  />
    </symbol>
<!--social networks-->

  <symbol id="icon-twitter" viewBox="0 0 32 32"><path d="M32.002 6.078c-1.1.494-2.376.858-3.712 1.029l-.068.007a6.555 6.555 0 0 0 2.873-3.58l.013-.046a12.867 12.867 0 0 1-4.076 1.574l-.084.014A6.56 6.56 0 0 0 15.6 9.56c0 .52.044 1.02.152 1.496A18.554 18.554 0 0 1 2.256 4.227l-.027-.034a6.496 6.496 0 0 0-.895 3.311 6.565 6.565 0 0 0 2.888 5.443l.023.015a6.465 6.465 0 0 1-2.997-.823l.033.017v.072a6.594 6.594 0 0 0 5.213 6.439l.043.008a6.414 6.414 0 0 1-1.669.216h-.054.003a5.834 5.834 0 0 1-1.279-.118l.037.006c.873 2.624 3.274 4.496 6.122 4.57h.009a13.092 13.092 0 0 1-8.12 2.798h-.015.001c-.538 0-1.054-.024-1.57-.09 2.826 1.846 6.287 2.944 10.004 2.944h.063-.003c12.073 0 18.673-10.001 18.673-18.669 0-.29-.01-.57-.024-.848a13.186 13.186 0 0 0 3.258-3.359l.03-.047z"/>
</symbol><symbol id="icon-facebook" viewBox="0 0 32 32"><path d="M21.331 5.314h2.92V.226A36.551 36.551 0 0 0 20.126 0h-.138.007c-4.212 0-7.094 2.65-7.094 7.521v4.48h-4.65v5.688h4.648v14.313h5.698V17.691h4.46l.708-5.69h-5.17v-3.92c.002-1.644.444-2.768 2.736-2.768z"/></symbol>
<symbol id="icon-instagram" viewBox="0 0 32 32"><path d="M31.97 9.409c-.074-1.7-.35-2.87-.744-3.882a7.844 7.844 0 0 0-1.849-2.839l-.001-.001A7.884 7.884 0 0 0 26.598.863l-.054-.018c-1.02-.394-2.18-.67-3.88-.744-1.716-.08-2.262-.1-6.602-.1-4.346 0-4.89.02-6.596.094-1.7.074-2.868.35-3.88.744a7.844 7.844 0 0 0-2.839 1.849l-.001.001A7.89 7.89 0 0 0 .92 5.467l-.018.054c-.394 1.02-.668 2.18-.744 3.88-.08 1.714-.1 2.26-.1 6.602 0 4.346.02 4.89.094 6.596.074 1.7.35 2.87.744 3.882a7.886 7.886 0 0 0 1.85 2.838c.8.812 1.77 1.444 2.832 1.844 1.02.394 2.18.67 3.882.744 1.706.076 2.25.094 6.596.094 4.344 0 4.888-.02 6.594-.094 1.7-.074 2.87-.35 3.882-.744a8.233 8.233 0 0 0 4.663-4.627l.019-.055c.394-1.02.67-2.18.744-3.882.076-1.706.094-2.25.094-6.596 0-4.344-.006-4.888-.08-6.594zm-2.88 13.065c-.07 1.564-.332 2.408-.552 2.97a5.34 5.34 0 0 1-3.002 3.028l-.036.013c-.562.218-1.412.48-2.968.548-1.688.076-2.194.094-6.464.094s-4.782-.02-6.464-.094c-1.564-.068-2.408-.33-2.97-.55a4.947 4.947 0 0 1-1.837-1.193l-.001-.001a4.988 4.988 0 0 1-1.183-1.804l-.011-.034c-.22-.562-.48-1.412-.55-2.968-.074-1.688-.094-2.196-.094-6.464 0-4.27.02-4.782.094-6.464.07-1.564.332-2.408.55-2.97a4.888 4.888 0 0 1 1.2-1.838 4.96 4.96 0 0 1 1.84-1.194c.56-.22 1.412-.48 2.968-.55 1.688-.074 2.194-.094 6.464-.094 4.276 0 4.78.02 6.464.094 1.562.07 2.406.332 2.968.55a4.929 4.929 0 0 1 1.84 1.194 4.98 4.98 0 0 1 1.192 1.84c.22.56.482 1.41.55 2.968.076 1.688.094 2.194.094 6.464s-.018 4.77-.092 6.456z"/><path d="M16.061 7.783a8.222 8.222 0 0 0-.009 16.441h.009a8.222 8.222 0 0 0 .009-16.441h-.009zm0 13.554a5.334 5.334 0 1 1 0-10.668 5.334 5.334 0 1 1 0 10.668zM26.526 7.458a1.92 1.92 0 0 1-3.84 0 1.92 1.92 0 0 1 3.84 0z"/></symbol>


</defs>
</svg>